<svg width="286" height="70" viewBox="0 0 286 70" fill="none" xmlns="http://www.w3.org/2000/svg">
<path d="M21.56 47L9.56 27.48V47H6V20.4H9.48L21.88 40.48V20.4H25.4V47H21.56ZM45.5984 47V43.96C44.7451 44.9467 43.7584 45.7333 42.6384 46.32C41.5184 46.9067 40.3318 47.2 39.0784 47.2C37.6918 47.2 36.3851 46.9467 35.1584 46.44C33.9584 45.9333 32.8918 45.2133 31.9584 44.28C31.0251 43.3733 30.2918 42.3067 29.7584 41.08C29.2518 39.8267 28.9984 38.52 28.9984 37.16C28.9984 35.8 29.2518 34.5067 29.7584 33.28C30.2918 32.0267 31.0251 30.9333 31.9584 30C32.8918 29.0667 33.9584 28.3467 35.1584 27.84C36.3851 27.3333 37.6918 27.08 39.0784 27.08C40.3584 27.08 41.5584 27.3467 42.6784 27.88C43.8251 28.4133 44.7984 29.16 45.5984 30.12V27.48H49.1984V47H45.5984ZM39.0784 30.64C38.1984 30.64 37.3451 30.8133 36.5184 31.16C35.7184 31.48 35.0251 31.9333 34.4384 32.52C33.8518 33.1067 33.3851 33.8133 33.0384 34.64C32.7184 35.44 32.5584 36.28 32.5584 37.16C32.5584 38.04 32.7184 38.88 33.0384 39.68C33.3851 40.48 33.8518 41.1733 34.4384 41.76C35.0251 42.3467 35.7184 42.8133 36.5184 43.16C37.3451 43.48 38.1984 43.64 39.0784 43.64C39.9584 43.64 40.7984 43.48 41.5984 43.16C42.3984 42.8133 43.0918 42.3467 43.6784 41.76C44.2651 41.1733 44.7184 40.48 45.0384 39.68C45.3851 38.88 45.5584 38.04 45.5584 37.16C45.5584 36.28 45.3851 35.44 45.0384 34.64C44.7184 33.8133 44.2651 33.1067 43.6784 32.52C43.0918 31.9333 42.3984 31.48 41.5984 31.16C40.7984 30.8133 39.9584 30.64 39.0784 30.64ZM59.1875 30.6V47H55.7875V30.6H52.7875V27H55.7875V20.4H59.1875V27H62.1875V30.6H59.1875ZM80.7938 47V43.96C79.9404 44.9467 78.9538 45.7333 77.8338 46.32C76.7138 46.9067 75.5271 47.2 74.2738 47.2C72.8871 47.2 71.5804 46.9467 70.3538 46.44C69.1538 45.9333 68.0871 45.2133 67.1538 44.28C66.2204 43.3733 65.4871 42.3067 64.9538 41.08C64.4471 39.8267 64.1938 38.52 64.1938 37.16C64.1938 35.8 64.4471 34.5067 64.9538 33.28C65.4871 32.0267 66.2204 30.9333 67.1538 30C68.0871 29.0667 69.1538 28.3467 70.3538 27.84C71.5804 27.3333 72.8871 27.08 74.2738 27.08C75.5538 27.08 76.7538 27.3467 77.8738 27.88C79.0204 28.4133 79.9938 29.16 80.7938 30.12V27.48H84.3938V47H80.7938ZM74.2738 30.64C73.3938 30.64 72.5404 30.8133 71.7138 31.16C70.9138 31.48 70.2204 31.9333 69.6338 32.52C69.0471 33.1067 68.5804 33.8133 68.2338 34.64C67.9138 35.44 67.7538 36.28 67.7538 37.16C67.7538 38.04 67.9138 38.88 68.2338 39.68C68.5804 40.48 69.0471 41.1733 69.6338 41.76C70.2204 42.3467 70.9138 42.8133 71.7138 43.16C72.5404 43.48 73.3938 43.64 74.2738 43.64C75.1538 43.64 75.9938 43.48 76.7938 43.16C77.5938 42.8133 78.2871 42.3467 78.8738 41.76C79.4604 41.1733 79.9138 40.48 80.2338 39.68C80.5804 38.88 80.7538 38.04 80.7538 37.16C80.7538 36.28 80.5804 35.44 80.2338 34.64C79.9138 33.8133 79.4604 33.1067 78.8738 32.52C78.2871 31.9333 77.5938 31.48 76.7938 31.16C75.9938 30.8133 75.1538 30.64 74.2738 30.64ZM88.3828 47V20.4H91.5828V47H88.3828ZM97.4103 24.12C96.9036 24.12 96.4636 23.9467 96.0903 23.6C95.7436 23.2267 95.5703 22.7867 95.5703 22.28C95.5703 21.7733 95.7436 21.3467 96.0903 21C96.4636 20.6267 96.9036 20.44 97.4103 20.44C97.917 20.44 98.3436 20.6267 98.6903 21C99.0636 21.3467 99.2503 21.7733 99.2503 22.28C99.2503 22.7867 99.0636 23.2267 98.6903 23.6C98.3436 23.9467 97.917 24.12 97.4103 24.12ZM95.7703 47V27H99.1303V47H95.7703ZM105.495 38.52C105.495 39.16 105.721 39.8267 106.175 40.52C106.655 41.2133 107.201 41.8 107.815 42.28C108.935 43.16 110.241 43.6 111.735 43.6C114.108 43.6 116.041 42.4533 117.535 40.16L120.575 41.96C119.535 43.64 118.255 44.9333 116.735 45.84C115.215 46.7467 113.548 47.2 111.735 47.2C110.375 47.2 109.081 46.9467 107.855 46.44C106.628 45.9067 105.548 45.1733 104.615 44.24C103.681 43.3067 102.948 42.2267 102.415 41C101.908 39.7733 101.655 38.48 101.655 37.12C101.655 35.76 101.908 34.4667 102.415 33.24C102.948 31.9867 103.681 30.8933 104.615 29.96C105.521 29.0267 106.588 28.3067 107.815 27.8C109.068 27.2933 110.375 27.04 111.735 27.04C113.095 27.04 114.388 27.2933 115.615 27.8C116.868 28.3067 117.948 29.0267 118.855 29.96C120.828 31.9867 121.815 34.3333 121.815 37C121.815 37.48 121.775 37.9867 121.695 38.52H105.495ZM111.735 30.32C110.641 30.32 109.615 30.56 108.655 31.04C107.695 31.52 106.921 32.16 106.335 32.96C105.775 33.7333 105.495 34.56 105.495 35.44H117.975C117.975 34.56 117.681 33.7333 117.095 32.96C116.535 32.16 115.775 31.52 114.815 31.04C113.855 30.56 112.828 30.32 111.735 30.32ZM151.222 20.36C152.715 20.3867 154.022 20.7333 155.142 21.4C156.262 22.0667 157.115 22.96 157.702 24.08C158.315 25.2 158.622 26.4667 158.622 27.88C158.622 28.92 158.422 29.9067 158.022 30.84C157.649 31.7467 157.129 32.56 156.462 33.28C157.422 34 158.169 34.8933 158.702 35.96C159.262 37.0267 159.542 38.2 159.542 39.48C159.542 40.84 159.209 42.0933 158.542 43.24C157.875 44.3867 156.982 45.3067 155.862 46C154.742 46.6667 153.502 47 152.142 47H143.422V20.36H151.222ZM146.942 23.96V31.88H151.222C152.315 31.88 153.235 31.4933 153.982 30.72C154.729 29.9467 155.102 29 155.102 27.88C155.102 26.76 154.729 25.8267 153.982 25.08C153.262 24.3333 152.342 23.96 151.222 23.96H146.942ZM146.942 35.48V43.4H152.142C153.235 43.4 154.155 43.0267 154.902 42.28C155.649 41.5067 156.022 40.5733 156.022 39.48C156.022 38.36 155.649 37.4133 154.902 36.64C154.155 35.8667 153.235 35.48 152.142 35.48H146.942ZM172.868 47.2C171.508 47.2 170.215 46.9333 168.988 46.4C167.762 45.8667 166.682 45.1333 165.748 44.2C164.815 43.2667 164.082 42.1867 163.548 40.96C163.015 39.7333 162.748 38.44 162.748 37.08C162.748 35.6933 163.015 34.3733 163.548 33.12C164.082 31.8667 164.815 30.7733 165.748 29.84C166.682 28.9067 167.762 28.1867 168.988 27.68C170.215 27.1467 171.508 26.88 172.868 26.88C174.255 26.88 175.575 27.1467 176.828 27.68C178.082 28.1867 179.175 28.9067 180.108 29.84C181.042 30.7733 181.762 31.8667 182.268 33.12C182.802 34.3733 183.068 35.6933 183.068 37.08C183.068 38.44 182.802 39.7333 182.268 40.96C181.762 42.1867 181.042 43.2667 180.108 44.2C179.175 45.1333 178.082 45.8667 176.828 46.4C175.575 46.9333 174.255 47.2 172.868 47.2ZM172.868 30.44C171.082 30.44 169.548 31.08 168.268 32.36C167.655 32.9733 167.175 33.6933 166.828 34.52C166.482 35.3467 166.308 36.2 166.308 37.08C166.308 37.96 166.482 38.8 166.828 39.6C167.175 40.4 167.655 41.1067 168.268 41.72C168.882 42.3333 169.575 42.8133 170.348 43.16C171.148 43.5067 171.988 43.68 172.868 43.68C173.748 43.68 174.602 43.5067 175.428 43.16C176.255 42.8133 176.962 42.3333 177.548 41.72C178.135 41.1067 178.602 40.4 178.948 39.6C179.295 38.8 179.468 37.96 179.468 37.08C179.468 36.2 179.295 35.3467 178.948 34.52C178.602 33.6933 178.135 32.9733 177.548 32.36C176.962 31.7467 176.255 31.28 175.428 30.96C174.628 30.6133 173.775 30.44 172.868 30.44ZM195.584 30.84C194.944 30.5467 194.371 30.4 193.864 30.4C192.797 30.4 191.917 30.7733 191.224 31.52C190.477 32.32 190.104 33.24 190.104 34.28V47H186.664V34.28C186.664 32.84 187.024 31.52 187.744 30.32C188.491 29.12 189.504 28.1867 190.784 27.52C191.744 27.0667 192.771 26.84 193.864 26.84C194.744 26.84 195.584 27 196.384 27.32C197.184 27.64 198.024 28.16 198.904 28.88L195.584 30.84ZM213.742 46.88V45.2C213.209 45.76 212.529 46.2267 211.702 46.6C210.902 46.9733 210.102 47.16 209.302 47.16C208.236 47.16 207.209 46.96 206.222 46.56C205.262 46.1333 204.409 45.5467 203.662 44.8C202.942 44.0533 202.369 43.2 201.942 42.24C201.542 41.2533 201.342 40.2133 201.342 39.12V27H204.862V39.12C204.862 40.3467 205.302 41.4 206.182 42.28C207.062 43.16 208.102 43.6 209.302 43.6C209.862 43.6 210.422 43.48 210.982 43.24C211.542 43 212.022 42.68 212.422 42.28C213.302 41.4 213.742 40.3467 213.742 39.12V27H217.222V46.88H213.742ZM231.333 47H227.933L220.053 27H223.853L229.653 41.6L235.413 27H239.213L231.333 47ZM252.397 47L246.317 39.6V47H242.797V20.4H246.317V31.88L251.757 26.76H256.997L247.517 35.56L257.037 47H252.397ZM274.466 47V43.96C273.612 44.9467 272.626 45.7333 271.506 46.32C270.386 46.9067 269.199 47.2 267.946 47.2C266.559 47.2 265.252 46.9467 264.026 46.44C262.826 45.9333 261.759 45.2133 260.826 44.28C259.892 43.3733 259.159 42.3067 258.626 41.08C258.119 39.8267 257.866 38.52 257.866 37.16C257.866 35.8 258.119 34.5067 258.626 33.28C259.159 32.0267 259.892 30.9333 260.826 30C261.759 29.0667 262.826 28.3467 264.026 27.84C265.252 27.3333 266.559 27.08 267.946 27.08C269.226 27.08 270.426 27.3467 271.546 27.88C272.692 28.4133 273.666 29.16 274.466 30.12V27.48H278.066V47H274.466ZM267.946 30.64C267.066 30.64 266.212 30.8133 265.386 31.16C264.586 31.48 263.892 31.9333 263.306 32.52C262.719 33.1067 262.252 33.8133 261.906 34.64C261.586 35.44 261.426 36.28 261.426 37.16C261.426 38.04 261.586 38.88 261.906 39.68C262.252 40.48 262.719 41.1733 263.306 41.76C263.892 42.3467 264.586 42.8133 265.386 43.16C266.212 43.48 267.066 43.64 267.946 43.64C268.826 43.64 269.666 43.48 270.466 43.16C271.266 42.8133 271.959 42.3467 272.546 41.76C273.132 41.1733 273.586 40.48 273.906 39.68C274.252 38.88 274.426 38.04 274.426 37.16C274.426 36.28 274.252 35.44 273.906 34.64C273.586 33.8133 273.132 33.1067 272.546 32.52C271.959 31.9333 271.266 31.48 270.466 31.16C269.666 30.8133 268.826 30.64 267.946 30.64Z" fill="#1395C1"/>
</svg>
