<?xml version="1.0" standalone="no"?>
<!DOCTYPE svg PUBLIC "-//W3C//DTD SVG 20010904//EN"
 "http://www.w3.org/TR/2001/REC-SVG-20010904/DTD/svg10.dtd">
<svg version="1.0" xmlns="http://www.w3.org/2000/svg"
 width="700.000000pt" height="700.000000pt" viewBox="0 0 700.000000 700.000000"
 preserveAspectRatio="xMidYMid meet">
<metadata>
Created by potrace 1.14, written by Peter Selinger 2001-2017
</metadata>
<g transform="translate(0.000000,700.000000) scale(0.100000,-0.100000)"
fill="#000000" stroke="none">
<path d="M3461 5970 c-6 -4 -8 -4510 -2 -4530 0 -3 135 -5 299 -5 l297 0 0
261 0 261 92 -93 c253 -254 558 -411 873 -451 71 -9 288 -9 365 -1 197 23 371
75 560 168 111 54 246 136 304 185 350 290 564 651 647 1091 20 106 27 418 11
514 -2 14 -7 45 -11 70 -15 95 -67 271 -110 374 -103 246 -221 423 -398 597
-82 81 -253 219 -272 219 -3 0 -25 13 -49 30 -75 50 -233 120 -377 166 -155
50 -281 68 -475 69 -163 0 -306 -9 -325 -20 -3 -2 -17 -6 -31 -8 -95 -18 -203
-54 -308 -105 -150 -71 -389 -254 -452 -346 -13 -20 -28 -37 -34 -40 -7 -2
-10 268 -10 798 l0 801 -293 0 c-162 0 -297 -2 -301 -5z m1972 -1719 c147 -35
313 -109 412 -185 364 -276 536 -762 425 -1197 -108 -422 -455 -751 -880 -832
-41 -8 -84 -15 -95 -16 -54 -2 -213 0 -235 3 -87 13 -113 18 -171 35 -247 72
-438 206 -598 421 -144 193 -217 414 -218 660 -1 145 10 219 52 347 141 424
454 700 880 776 114 21 316 15 428 -12z"/>
<path d="M1400 4849 c-97 -11 -128 -17 -210 -46 -155 -53 -316 -151 -417 -253
-30 -30 -53 -47 -54 -39 0 8 -1 69 0 137 l0 122 -298 0 -298 0 0 -1667 0
-1668 296 0 296 0 1 1015 c1 558 3 1042 5 1075 14 308 263 610 569 690 135 36
343 22 471 -30 196 -79 363 -256 435 -459 14 -40 20 -64 33 -146 3 -25 6 -516
6 -1092 0 -577 2 -1049 5 -1049 3 -1 138 -2 301 -3 l296 -1 -2 1100 c-2 605
-6 1116 -9 1135 -34 202 -110 403 -214 565 -122 192 -307 358 -511 459 -197
98 -342 141 -516 152 -44 3 -89 6 -100 7 -11 1 -49 -1 -85 -4z"/>
</g>
</svg>
